<svg xmlns="http://www.w3.org/2000/svg" width="1024" height="1024" viewBox="0 0 1024 1024">
  <defs>
    <linearGradient id="bg" x1="0" y1="0" x2="1" y2="1">
      <stop offset="0" stop-color="#0E1525"/>
      <stop offset="1" stop-color="#0B1220"/>
    </linearGradient>
    <linearGradient id="mark" x1="0" y1="0" x2="1" y2="1">
      <stop offset="0" stop-color="#10B981"/>
      <stop offset="1" stop-color="#22D3EE"/>
    </linearGradient>
  </defs>
  <rect width="1024" height="1024" rx="224" fill="url(#bg)"/>
  <!-- Stilizatsiyalangan 'S' / shahar minorasi -->
  <path d="M512 196c-150 0-256 96-256 220 0 96 64 156 196 196 96 30 132 56 132 104 0 44-44 72-108 72-72 0-120-32-150-86l-86 60c46 84 134 134 244 134 156 0 264-86 264-214 0-104-66-162-206-204-92-28-122-50-122-94 0-40 40-66 100-66 62 0 104 26 132 74l84-58c-44-78-122-128-218-128z"
        fill="url(#mark)"/>
  <circle cx="512" cy="512" r="392" fill="none" stroke="url(#mark)" stroke-width="14" opacity="0.25"/>
</svg>
